<?xml version="1.0" encoding="UTF-8"?>
<svg version="1.1" viewBox="0 0 1046.1 727.03" xmlns="http://www.w3.org/2000/svg" xmlns:cc="http://creativecommons.org/ns#" xmlns:dc="http://purl.org/dc/elements/1.1/" xmlns:rdf="http://www.w3.org/1999/02/22-rdf-syntax-ns#" xmlns:xlink="http://www.w3.org/1999/xlink">
<metadata>
<rdf:RDF>
<cc:Work rdf:about="">
<dc:format>image/svg+xml</dc:format>
<dc:type rdf:resource="http://purl.org/dc/dcmitype/StillImage"/>
<dc:title/>
</cc:Work>
</rdf:RDF>
</metadata>
<defs>
<linearGradient id="e">
<stop stop-color="#3771c8" offset="0"/>
<stop stop-color="#3771c8" offset=".128"/>
<stop stop-color="#60f" stop-opacity="0" offset="1"/>
</linearGradient>
<linearGradient id="f">
<stop stop-color="#fd5" offset="0"/>
<stop stop-color="#fd5" offset=".1"/>
<stop stop-color="#ff543e" offset=".5"/>
<stop stop-color="#c837ab" offset="1"/>
</linearGradient>
<radialGradient id="j" cx="158.43" cy="578.09" r="65" gradientTransform="matrix(0 -1.982 1.8439 0 -115.35 986.92)" gradientUnits="userSpaceOnUse" xlink:href="#f"/>
<radialGradient id="h" cx="147.69" cy="473.45" r="65" gradientTransform="matrix(.17394 .86872 -3.5818 .71718 2564.4 74.42)" gradientUnits="userSpaceOnUse" xlink:href="#e"/>
<radialGradient id="g" cx="147.69" cy="473.45" r="65" gradientTransform="matrix(.17394 .86872 -3.5818 .71718 2447.6 -458.49)" gradientUnits="userSpaceOnUse" xlink:href="#e"/>
<radialGradient id="i" cx="158.43" cy="578.09" r="65" gradientTransform="matrix(0 -1.982 1.8439 0 -232.19 454)" gradientUnits="userSpaceOnUse" xlink:href="#f"/>
</defs>
<path d="m981.09 532.91c-27.142 0-35.08 0.028-36.623 0.156-5.57 0.463-9.036 1.34-12.812 3.22-2.91 1.445-5.205 3.12-7.47 5.468-4.125 4.282-6.625 9.55-7.53 15.812-0.44 3.04-0.568 3.66-0.594 19.188-0.01 5.176 0 11.988 0 21.125 0 27.12 0.03 35.05 0.16 36.59 0.45 5.42 1.3 8.83 3.1 12.56 3.44 7.14 10.01 12.5 17.75 14.5 2.68 0.69 5.64 1.07 9.44 1.25 1.61 0.07 18.02 0.12 34.44 0.12s32.84-0.02 34.41-0.1c4.4-0.207 6.955-0.55 9.78-1.28 7.79-2.01 14.24-7.29 17.75-14.53 1.765-3.64 2.66-7.18 3.065-12.317 0.088-1.12 0.125-18.977 0.125-36.81 0-17.836-0.04-35.66-0.128-36.78-0.41-5.22-1.305-8.73-3.127-12.44-1.495-3.037-3.155-5.305-5.565-7.624-4.301-4.108-9.561-6.608-15.829-7.512-3.037-0.439-3.642-0.569-19.182-0.596z" fill="url(#j)"/>
<path d="m981.09 532.91c-27.142 0-35.08 0.028-36.623 0.156-5.57 0.463-9.036 1.34-12.812 3.22-2.91 1.445-5.205 3.12-7.47 5.468-4.125 4.282-6.625 9.55-7.53 15.812-0.44 3.04-0.568 3.66-0.594 19.188-0.01 5.176 0 11.988 0 21.125 0 27.12 0.03 35.05 0.16 36.59 0.45 5.42 1.3 8.83 3.1 12.56 3.44 7.14 10.01 12.5 17.75 14.5 2.68 0.69 5.64 1.07 9.44 1.25 1.61 0.07 18.02 0.12 34.44 0.12s32.84-0.02 34.41-0.1c4.4-0.207 6.955-0.55 9.78-1.28 7.79-2.01 14.24-7.29 17.75-14.53 1.765-3.64 2.66-7.18 3.065-12.317 0.088-1.12 0.125-18.977 0.125-36.81 0-17.836-0.04-35.66-0.128-36.78-0.41-5.22-1.305-8.73-3.127-12.44-1.495-3.037-3.155-5.305-5.565-7.624-4.301-4.108-9.561-6.608-15.829-7.512-3.037-0.439-3.642-0.569-19.182-0.596z" fill="url(#h)"/>
<path d="m981.06 549.91c-13.036 0-14.672 0.057-19.792 0.29-5.11 0.234-8.598 1.043-11.65 2.23-3.157 1.226-5.835 2.866-8.503 5.535-2.67 2.668-4.31 5.346-5.54 8.502-1.19 3.053-2 6.542-2.23 11.65-0.229 5.12-0.289 6.757-0.289 19.793s0.058 14.667 0.29 19.787c0.235 5.11 1.044 8.598 2.23 11.65 1.227 3.157 2.867 5.835 5.536 8.503 2.667 2.67 5.345 4.314 8.5 5.54 3.054 1.187 6.543 1.996 11.652 2.23 5.12 0.233 6.755 0.29 19.79 0.29 13.037 0 14.668-0.057 19.788-0.29 5.11-0.234 8.602-1.043 11.656-2.23 3.156-1.226 5.83-2.87 8.497-5.54 2.67-2.668 4.31-5.346 5.54-8.502 1.18-3.053 1.99-6.542 2.23-11.65 0.23-5.12 0.29-6.752 0.29-19.788s-0.06-14.672-0.29-19.792c-0.24-5.11-1.05-8.598-2.23-11.65-1.23-3.157-2.87-5.835-5.54-8.503-2.67-2.67-5.34-4.31-8.5-5.535-3.06-1.187-6.55-1.996-11.66-2.23-5.12-0.233-6.75-0.29-19.79-0.29zm-4.306 8.65c1.278-2e-3 2.704 0 4.306 0 12.816 0 14.335 0.046 19.396 0.276 4.68 0.214 7.22 0.996 8.912 1.653 2.24 0.87 3.837 1.91 5.516 3.59 1.68 1.68 2.72 3.28 3.592 5.52 0.657 1.69 1.44 4.23 1.653 8.91 0.23 5.06 0.28 6.58 0.28 19.39s-0.05 14.33-0.28 19.39c-0.214 4.68-0.996 7.22-1.653 8.91-0.87 2.24-1.912 3.835-3.592 5.514-1.68 1.68-3.275 2.72-5.516 3.59-1.69 0.66-4.232 1.44-8.912 1.654-5.06 0.23-6.58 0.28-19.396 0.28-12.817 0-14.336-0.05-19.396-0.28-4.68-0.216-7.22-0.998-8.913-1.655-2.24-0.87-3.84-1.91-5.52-3.59s-2.72-3.276-3.592-5.517c-0.657-1.69-1.44-4.23-1.653-8.91-0.23-5.06-0.276-6.58-0.276-19.398s0.046-14.33 0.276-19.39c0.214-4.68 0.996-7.22 1.653-8.912 0.87-2.24 1.912-3.84 3.592-5.52s3.28-2.72 5.52-3.592c1.692-0.66 4.233-1.44 8.913-1.655 4.428-0.2 6.144-0.26 15.09-0.27zm29.928 7.97c-3.18 0-5.76 2.577-5.76 5.758 0 3.18 2.58 5.76 5.76 5.76s5.76-2.58 5.76-5.76-2.58-5.76-5.76-5.76zm-25.622 6.73c-13.613 0-24.65 11.037-24.65 24.65s11.037 24.645 24.65 24.645 24.646-11.032 24.646-24.645-11.034-24.65-24.647-24.65zm0 8.65c8.836 0 16 7.163 16 16 0 8.836-7.164 16-16 16-8.837 0-16-7.164-16-16 0-8.837 7.163-16 16-16z" fill="#fff"/>
<path d="m864.24 0c-27.142 0-35.08 0.028-36.623 0.156-5.57 0.463-9.036 1.34-12.812 3.22-2.91 1.445-5.205 3.12-7.47 5.468-4.125 4.282-6.625 9.55-7.53 15.812-0.44 3.04-0.568 3.66-0.594 19.188-0.01 5.176 0 11.988 0 21.125 0 27.12 0.03 35.05 0.16 36.59 0.45 5.42 1.3 8.83 3.1 12.56 3.44 7.14 10.01 12.5 17.75 14.5 2.68 0.69 5.64 1.07 9.44 1.25 1.61 0.07 18.02 0.12 34.44 0.12s32.84-0.02 34.41-0.1c4.4-0.207 6.955-0.55 9.78-1.28 7.79-2.01 14.24-7.29 17.75-14.53 1.765-3.64 2.66-7.18 3.065-12.317 0.088-1.12 0.125-18.977 0.125-36.81 0-17.836-0.04-35.66-0.128-36.78-0.41-5.22-1.305-8.73-3.127-12.44-1.495-3.037-3.155-5.305-5.565-7.624-4.301-4.108-9.561-6.608-15.829-7.512-3.037-0.439-3.642-0.569-19.182-0.596z" fill="url(#i)"/>
<path d="m864.24 0c-27.142 0-35.08 0.028-36.623 0.156-5.57 0.463-9.036 1.34-12.812 3.22-2.91 1.445-5.205 3.12-7.47 5.468-4.125 4.282-6.625 9.55-7.53 15.812-0.44 3.04-0.568 3.66-0.594 19.188-0.01 5.176 0 11.988 0 21.125 0 27.12 0.03 35.05 0.16 36.59 0.45 5.42 1.3 8.83 3.1 12.56 3.44 7.14 10.01 12.5 17.75 14.5 2.68 0.69 5.64 1.07 9.44 1.25 1.61 0.07 18.02 0.12 34.44 0.12s32.84-0.02 34.41-0.1c4.4-0.207 6.955-0.55 9.78-1.28 7.79-2.01 14.24-7.29 17.75-14.53 1.765-3.64 2.66-7.18 3.065-12.317 0.088-1.12 0.125-18.977 0.125-36.81 0-17.836-0.04-35.66-0.128-36.78-0.41-5.22-1.305-8.73-3.127-12.44-1.495-3.037-3.155-5.305-5.565-7.624-4.301-4.108-9.561-6.608-15.829-7.512-3.037-0.439-3.642-0.569-19.182-0.596z" fill="url(#g)"/>
<path d="m864.21 17c-13.036 0-14.672 0.057-19.792 0.29-5.11 0.234-8.598 1.043-11.65 2.23-3.157 1.226-5.835 2.866-8.503 5.535-2.67 2.668-4.31 5.346-5.54 8.502-1.19 3.053-2 6.542-2.23 11.65-0.229 5.12-0.289 6.757-0.289 19.793s0.058 14.667 0.29 19.787c0.235 5.11 1.044 8.598 2.23 11.65 1.227 3.157 2.867 5.835 5.536 8.503 2.667 2.67 5.345 4.314 8.5 5.54 3.054 1.187 6.543 1.996 11.652 2.23 5.12 0.233 6.755 0.29 19.79 0.29 13.037 0 14.668-0.057 19.788-0.29 5.11-0.234 8.602-1.043 11.656-2.23 3.156-1.226 5.83-2.87 8.497-5.54 2.67-2.668 4.31-5.346 5.54-8.502 1.18-3.053 1.99-6.542 2.23-11.65 0.23-5.12 0.29-6.752 0.29-19.788s-0.06-14.672-0.29-19.792c-0.24-5.11-1.05-8.598-2.23-11.65-1.23-3.157-2.87-5.835-5.54-8.503-2.67-2.67-5.34-4.31-8.5-5.535-3.06-1.187-6.55-1.996-11.66-2.23-5.12-0.233-6.75-0.29-19.79-0.29zm-4.306 8.65c1.278-2e-3 2.704 0 4.306 0 12.816 0 14.335 0.046 19.396 0.276 4.68 0.214 7.22 0.996 8.912 1.653 2.24 0.87 3.837 1.91 5.516 3.59 1.68 1.68 2.72 3.28 3.592 5.52 0.657 1.69 1.44 4.23 1.653 8.91 0.23 5.06 0.28 6.58 0.28 19.39s-0.05 14.33-0.28 19.39c-0.214 4.68-0.996 7.22-1.653 8.91-0.87 2.24-1.912 3.835-3.592 5.514-1.68 1.68-3.275 2.72-5.516 3.59-1.69 0.66-4.232 1.44-8.912 1.654-5.06 0.23-6.58 0.28-19.396 0.28-12.817 0-14.336-0.05-19.396-0.28-4.68-0.216-7.22-0.998-8.913-1.655-2.24-0.87-3.84-1.91-5.52-3.59s-2.72-3.276-3.592-5.517c-0.657-1.69-1.44-4.23-1.653-8.91-0.23-5.06-0.276-6.58-0.276-19.398s0.046-14.33 0.276-19.39c0.214-4.68 0.996-7.22 1.653-8.912 0.87-2.24 1.912-3.84 3.592-5.52s3.28-2.72 5.52-3.592c1.692-0.66 4.233-1.44 8.913-1.655 4.428-0.2 6.144-0.26 15.09-0.27zm29.928 7.97c-3.18 0-5.76 2.577-5.76 5.758 0 3.18 2.58 5.76 5.76 5.76s5.76-2.58 5.76-5.76-2.58-5.76-5.76-5.76zm-25.622 6.73c-13.613 0-24.65 11.037-24.65 24.65s11.037 24.645 24.65 24.645 24.646-11.032 24.646-24.645-11.034-24.65-24.647-24.65zm0 8.65c8.836 0 16 7.163 16 16 0 8.836-7.164 16-16 16-8.837 0-16-7.164-16-16 0-8.837 7.163-16 16-16z" fill="#fff"/>
<path d="m805.96 139.35c-2.6398 1.105-5.5419 4.2268-6.4584 8.1452-1.1608 4.9648 3.6697 7.0643 4.0659 6.376 0.46631-0.80888-0.86556-1.0824-1.1397-3.6584-0.35432-3.3271 1.1924-7.0448 3.1391-8.676 0.36186-0.30306 0.34465 0.11875 0.34465 0.89898 0 1.3952-0.077 13.92-0.077 16.534 0 3.537-0.1461 4.654-0.40848 5.7577-0.26586 1.1185-0.69324 1.8742-0.36939 2.1653 0.36184 0.32563 1.9067-0.44893 2.8011-1.6972 1.0725-1.4971 1.4479-3.295 1.5153-5.2475 0.0814-2.3537 0.078-6.0885 0.0814-8.2188 3e-3 -1.9538 0.0328-7.675-0.0343-11.114-0.0165-0.84359-2.3561-1.7287-3.4602-1.266m93.74 16.554c-0.0851 1.8388-0.49215 3.2761-0.99732 4.2899-0.97799 1.9627-3.0074 2.5721-3.869-0.24931-0.46956-1.538-0.49149-4.1064-0.15391-6.2526 0.34364-2.1863 1.3032-3.8375 2.8921-3.6886 1.5672 0.14719 2.3007 2.1666 2.1281 5.9005zm-26.42 11.409c-0.0213 3.0553-0.50213 5.7342-1.5333 6.5123-1.4625 1.1032-3.4283 0.27568-3.0212-1.9538 0.36016-1.9729 2.0634-3.9877 4.5587-6.4495 0 0 5e-3 0.5614-4e-3 1.8911zm-0.39944-11.426c-0.0894 1.6748-0.52362 3.3573-0.99731 4.3079-0.97778 1.9626-3.0219 2.5762-3.869-0.2493-0.57919-1.9305-0.44048-4.4291-0.15391-6.0034 0.37186-2.0426 1.2732-3.9376 2.8921-3.9376 1.5739 0 2.35 1.7267 2.1281 5.8825zm-15.305-0.0256c-0.096 1.7738-0.44199 3.2566-0.99731 4.3336-1.0047 1.9492-2.9924 2.5673-3.869-0.24929-0.63195-2.031-0.4168-4.8003-0.15392-6.2963 0.39012-2.22 1.367-3.7938 2.8921-3.6447 1.5665 0.15303 2.3281 2.1663 2.1281 5.8569zm70.14 2.0719c-0.38296 0-0.55772 0.39473-0.70229 1.0592-0.50147 2.3103-1.0286 2.8319-1.7083 2.8319-0.75938 0-1.4417-1.144-1.6171-3.4339-0.13785-1.8006-0.11569-5.1157 0.0606-8.4133 0.036-0.67753-0.15088-1.3479-1.9681-2.0081-0.78197-0.28396-1.9187-0.70208-2.4846 0.66408-1.5991 3.8596-2.2248 6.9239-2.3719 8.1687-7e-3 0.0644-0.0867 0.0777-0.10052-0.0729-0.0938-0.997-0.30348-2.8087-0.32953-6.6152-5e-3 -0.74267-0.16238-1.3748-0.98212-1.8924-0.53188-0.33582-2.147-0.92978-2.7286-0.22317-0.50388 0.57791-1.0874 2.1331-1.6938 3.9767-0.49278 1.4983-0.836 2.512-0.836 2.512s6e-3 -4.0429 0.0124-5.5764c3e-3 -0.57854-0.39424-0.77132-0.51385-0.80626-0.53861-0.15632-1.5998-0.41746-2.0502-0.41746-0.55576 0-0.69187 0.31065-0.69187 0.76329 0 0.0593-0.0877 5.3228-0.0877 9.0034 0 0.15988 0 0.3343 2e-3 0.51959-0.30739 1.6916-1.3043 3.988-2.3884 3.988-1.0854 0-1.5976-0.96003-1.5976-5.3478 0-2.5597 0.0769-3.6727 0.11463-5.5241 0.0219-1.0664 0.0643-1.8852 0.0619-2.071-8e-3 -0.56987-0.99339-0.85708-1.4519-0.96322-0.46066-0.10705-0.86099-0.1485-1.1736-0.1307-0.44242 0.025-0.75547 0.31522-0.75547 0.71445 0 0.21404 2e-3 0.62109 2e-3 0.62109-0.56985-0.8955-1.4864-1.5188-2.0962-1.6994-1.6425-0.4878-3.3564-0.0556-4.6492 1.7534-1.0275 1.4374-1.6468 3.0653-1.8906 5.4042-0.17822 1.7099-0.12005 3.4439 0.1967 4.9104-0.38273 1.6547-1.0933 2.3326-1.8713 2.3326-1.1295 0-1.9484-1.8436-1.8533-5.0322 0.0627-2.0972 0.48238-3.569 0.94109-5.6982 0.1956-0.90766 0.0367-1.3829-0.3619-1.8383-0.36557-0.41767-1.1445-0.63107-2.2642-0.3686-0.79759 0.18713-1.938 0.38835-2.9813 0.54293 0 0 0.0629-0.25118 0.11464-0.69403 0.27134-2.3224-2.2523-2.134-3.0575-1.3922-0.48063 0.44287-0.80779 0.96519-0.93196 1.9043-0.19691 1.4903 1.0186 2.1933 1.0186 2.1933-0.39881 1.8255-1.3764 4.2102-2.3856 5.9344-0.54055 0.92375-0.95411 1.6082-1.4879 2.3359-2e-3 -0.27095-3e-3 -0.54187-4e-3 -0.81155-0.0122-3.8379 0.0389-6.8585 0.0614-7.9472 0.0219-1.0664 0.0647-1.8635 0.0623-2.0493-6e-3 -0.4168-0.24944-0.5742-0.75568-0.7735-0.44764-0.17626-0.97692-0.29826-1.5259-0.34082-0.69295-0.054-1.1104 0.31349-1.0996 0.7481 2e-3 0.0821 2e-3 0.58592 2e-3 0.58592-0.56988-0.8955-1.4864-1.5188-2.0962-1.6994-1.6425-0.48759-3.3564-0.0554-4.6492 1.7534-1.0273 1.4374-1.7 3.4543-1.8906 5.3864-0.17757 1.8007-0.14479 3.331 0.0973 4.6201-0.26115 1.2908-1.0121 2.6407-1.8611 2.6407-1.0855 0-1.7031-0.96005-1.7031-5.3478 0-2.5597 0.0769-3.6727 0.11462-5.5239 0.0219-1.0664 0.0643-1.8854 0.0619-2.071-8e-3 -0.56986-0.99341-0.85707-1.4519-0.96345-0.47977-0.11093-0.89397-0.15174-1.212-0.1283-0.41963 0.0311-0.71467 0.40705-0.71467 0.68731v0.64584c-0.56986-0.8955-1.4864-1.5188-2.0962-1.6994-1.6425-0.48759-3.3469-0.0484-4.6492 1.7534-0.84926 1.1749-1.5368 2.4774-1.8906 5.3608-0.10231 0.83325-0.14742 1.6135-0.14155 2.3428-0.33867 2.0711-1.8344 4.4581-3.0579 4.4581-0.71597 0-1.3978-1.3887-1.3978-4.3483 0-3.9424 0.24401-9.5554 0.28527-10.096 0 0 1.5459-0.0262 1.8453-0.0297 0.77109-8e-3 1.4695 9e-3 2.4965-0.0428 0.51516-0.0262 1.0114-1.875 0.47976-2.1038-0.24095-0.10357-1.944-0.19429-2.6192-0.20863-0.5677-0.013-2.1481-0.12982-2.1481-0.12982s0.14176-3.7257 0.17475-4.1193c0.0281-0.32803-0.3964-0.49692-0.63977-0.59941-0.59177-0.25029-1.1213-0.37013-1.7489-0.49952-0.86708-0.17888-1.2604-4e-3 -1.3373 0.72791-0.1157 1.1106-0.17564 4.3637-0.17564 4.3637-0.63628 0-2.8098-0.12438-3.4463-0.12438-0.59136 0-1.2296 2.5432-0.41204 2.5745 0.94064 0.0365 2.5799 0.068 3.6666 0.10073 0 0-0.0484 5.7056-0.0484 7.467 0 0.18739 2e-3 0.36787 2e-3 0.54298-0.5981 3.1174-2.7047 4.8014-2.7047 4.8014 0.4524-2.0624-0.47174-3.6111-2.1364-4.9221-0.6133-0.48311-1.824-1.3977-3.1786-2.4 0 0 0.78457-0.77326 1.4803-2.3289 0.49301-1.102 0.5143-2.363-0.69577-2.6411-1.9994-0.4598-3.648 1.0086-4.1397 2.5762-0.38098 1.2144-0.17777 2.1155 0.56858 3.0516 0.0545 0.0684 0.11354 0.13829 0.17454 0.20862-0.45133 0.86993-1.0714 2.0411-1.5965 2.9494-1.4575 2.5217-2.5586 4.5163-3.3907 4.5163-0.66517 0-0.65627-2.0251-0.65627-3.9211 0-1.6345 0.12072-4.0919 0.2171-6.6362 0.0319-0.84144-0.38881-1.3208-1.0941-1.755-0.42854-0.26378-1.3432-0.7824-1.8728-0.7824-0.79285 0-3.0803 0.10788-5.2416 6.3599-0.27238 0.78802-0.80748 2.2239-0.80748 2.2239l0.046-7.5182c0-0.17628-0.0939-0.3467-0.30885-0.46327-0.3642-0.19777-1.337-0.60221-2.2019-0.60221-0.41212 0-0.61778 0.19169-0.61778 0.57377l-0.0754 11.762c0 0.89372 0.0233 1.9363 0.11166 2.3923 0.088 0.45659 0.23066 0.828 0.4073 1.049 0.17638 0.22055 0.38042 0.38882 0.71682 0.45826 0.31308 0.0645 2.0275 0.28461 2.1166-0.37057 0.10677-0.78517 0.11085-1.6344 1.0111-4.8018 1.4015-4.9312 3.2288-7.3372 4.0878-8.1917 0.15019-0.14934 0.32169-0.15825 0.31343 0.0862-0.0367 1.0811-0.16563 3.7826-0.25245 6.0777-0.23269 6.1419 0.88463 7.2803 2.4814 7.2803 1.2216 0 2.9435-1.2138 4.7894-4.2862 1.1508-1.9147 2.2682-3.7921 3.071-5.1453 0.55945 0.5179 1.1873 1.0753 1.8147 1.6708 1.458 1.3838 1.9367 2.6986 1.6191 3.946-0.24292 0.95359-1.1577 1.9363-2.7859 0.98114-0.47456-0.27867-0.67711-0.49397-1.1543-0.80814-0.25638-0.16877-0.6478-0.21922-0.88247-0.0424-0.60959 0.45962-0.95823 1.0442-1.1573 1.768-0.19364 0.70427 0.51167 1.0766 1.2428 1.4022 0.62956 0.28026 1.9827 0.53424 2.8456 0.56315 3.3623 0.11245 6.0557-1.6234 7.9307-6.1011 0.33563 3.867 1.7641 6.0553 4.2459 6.0553 1.6592 0 3.3228-2.1447 4.0502-4.2545 0.20884 0.86005 0.51798 1.6079 0.91721 2.2404 1.9123 3.0299 5.6222 2.3778 7.4857-0.19511 0.57617-0.79502 0.66385-1.0807 0.66385-1.0807 0.2718 2.4294 2.2282 3.2783 3.3484 3.2783 1.2546 0 2.5499-0.5931 3.4578-2.637 0.10638 0.22182 0.22251 0.43365 0.3493 0.63447 1.9123 3.0299 5.6222 2.3778 7.4857-0.19512 0.0879-0.12069 0.16412-0.23017 0.23078-0.32843l0.0547 1.5958s-1.0631 0.97521-1.7157 1.5735c-2.8721 2.635-5.056 4.6342-5.2167 6.9623-0.20623 2.9685 2.2013 4.0718 4.0227 4.2163 1.9343 0.15351 3.5907-0.915 4.6088-2.4104 0.89548-1.3162 1.4816-4.149 1.4387-6.9469-0.0171-1.1204-0.0454-2.545-0.0675-4.072 1.0095-1.1723 2.1468-2.6539 3.194-4.3882 1.1412-1.89 2.3643-4.4282 2.9906-6.4035 0 0 1.0627 9e-3 2.1967-0.0651 0.36278-0.0236 0.46697 0.0503 0.3999 0.3163-0.081 0.32129-1.4328 5.5354-0.19908 9.0088 0.84448 2.3778 2.7482 3.1428 3.8768 3.1428 1.3212 0 2.5851-0.99775 3.2624-2.4794 0.0816 0.16519 0.16694 0.32502 0.26008 0.47258 1.9123 3.0299 5.6092 2.3739 7.4857-0.1951 0.42354-0.57962 0.66386-1.0807 0.66386-1.0807 0.4027 2.5143 2.358 3.2911 3.478 3.2911 1.1666 0 2.2738-0.47827 3.1721-2.6038 0.0376 0.93585 0.0966 1.7011 0.18994 1.9424 0.0569 0.14755 0.38839 0.33277 0.62956 0.42222 1.0672 0.39575 2.1557 0.2086 2.5584 0.1272 0.27895-0.0564 0.49648-0.28026 0.52622-0.85818 0.0781-1.5174 0.0301-4.067 0.49019-5.9617 0.7722-3.1799 1.4925-4.4134 1.8342-5.0241 0.19124-0.34214 0.40703-0.39859 0.41485-0.0365 0.0162 0.73267 0.0525 2.8843 0.3517 5.775 0.21967 2.126 0.51319 3.3827 0.73874 3.7804 0.64367 1.1373 1.4387 1.1912 2.086 1.1912 0.41181 0 1.273-0.11379 1.1959-0.83756-0.0376-0.35278 0.0283-2.533 0.78956-5.6658 0.49713-2.0458 1.326-3.8944 1.6249-4.5702 0.11028-0.24923 0.16152-0.0527 0.15978-0.0145-0.0629 1.4089-0.20428 6.0173 0.36969 8.5377 0.77806 3.4144 3.0288 3.7965 3.8132 3.7965 1.6744 0 3.0438-1.2737 3.5052-4.6251 0.11114-0.80652-0.0534-1.4293-0.54642-1.4293" fill="#262626" stroke-width=".16285"/>
<path d="m40.762 503.14c-16.21 6.7854-34.031 25.955-39.659 50.017-7.1278 30.488 22.534 43.38 24.967 39.152 2.8635-4.967-5.3151-6.6467-6.9986-22.465-2.1758-20.431 7.3224-43.26 19.276-53.276 2.222-1.861 2.1163 0.7292 2.1163 5.5203 0 8.5676-0.4734 85.48-0.4734 101.53 0 21.72-0.8971 28.578-2.5083 35.356-1.6325 6.8681-4.257 11.509-2.2683 13.296 2.2219 1.9996 11.709-2.7567 17.201-10.422 6.5857-9.1931 8.891-20.234 9.3049-32.223 0.4999-14.453 0.4786-37.387 0.4999-50.469 0.02-11.998 0.2021-47.13-0.2103-68.25-0.1011-5.1803-14.468-10.615-21.248-7.7745m575.63 101.65c-0.5226 11.292-3.0221 20.118-6.1242 26.343-6.0055 12.052-18.467 15.794-23.758-1.5309-2.8834-9.444-3.0181-25.216-0.9451-38.395 2.1102-13.426 8.0024-23.565 17.759-22.65 9.6235 0.9039 14.128 13.304 13.068 36.233zm-162.24 70.056c-0.1306 18.762-3.0834 35.212-9.4155 39.99-8.9809 6.7747-21.052 1.6929-18.552-11.998 2.2116-12.115 12.671-24.487 27.993-39.604 0 0 0.032 3.4474-0.025 11.612zm-2.4528-70.165c-0.5492 10.284-3.2154 20.616-6.1242 26.454-6.0042 12.052-18.556 15.82-23.758-1.5309-3.5566-11.855-2.7048-27.198-0.9451-36.865 2.2835-12.543 7.8185-24.179 17.759-24.179 9.6648 0 14.431 10.603 13.068 36.122zm-93.983-0.1573c-0.5892 10.892-2.7141 19.998-6.1241 26.611-6.1695 11.969-18.375 15.765-23.758-1.5309-3.8806-12.472-2.5595-29.477-0.9452-38.663 2.3956-13.632 8.3944-23.297 17.759-22.381 9.6195 0.9398 14.296 13.303 13.068 35.965zm430.7 12.723c-2.3516 0-3.4247 2.4239-4.3125 6.504-3.0794 14.187-6.3161 17.39-10.49 17.39-4.6631 0-8.853-7.0246-9.9301-21.087-0.8465-11.057-0.7105-31.414 0.372-51.663 0.2212-4.1605-0.9265-8.277-12.086-12.331-4.8018-1.7437-11.782-4.3112-15.257 4.0779-9.8194 23.701-13.661 42.517-14.565 50.161-0.047 0.3956-0.5319 0.4764-0.6172-0.4479-0.5759-6.1222-1.8636-17.247-2.0236-40.622-0.031-4.5605-0.9971-8.4424-6.0308-11.62-3.2661-2.0622-13.184-5.7095-16.756-1.3704-3.0941 3.5487-6.6774 13.099-10.401 24.419-3.026 9.2009-5.1336 15.425-5.1336 15.425s0.04-24.826 0.076-34.243c0.016-3.5526-2.4209-4.7364-3.1554-4.951-3.3074-0.9599-9.8235-2.5635-12.59-2.5635-3.4127 0-4.2485 1.9076-4.2485 4.6871 0 0.3639-0.5386 32.686-0.5386 55.287 0 0.9817 0 2.0528 0.01 3.1906-1.8876 10.388-8.0091 24.489-14.666 24.489-6.6654 0-9.8101-5.8952-9.8101-32.839 0-15.718 0.4719-22.553 0.7039-33.921 0.1346-6.5481 0.3946-11.576 0.3799-12.718-0.049-3.4993-6.1001-5.263-8.9156-5.9148-2.8288-0.6573-5.287-0.9119-7.2066-0.8026-2.7168 0.1533-4.6391 1.9357-4.6391 4.3872 0 1.3144 0.015 3.8139 0.015 3.8139-3.4993-5.4989-9.1275-9.3262-12.872-10.435-10.086-2.9954-20.611-0.3413-28.549 10.767-6.3095 8.8263-10.113 18.823-11.61 33.186-1.0944 10.5-0.7372 21.148 1.2078 30.153-2.3502 10.161-6.7134 14.324-11.491 14.324-6.936 0-11.964-11.321-11.38-30.901 0.3852-12.878 2.9621-21.916 5.7789-34.991 1.2011-5.5736 0.2253-8.4917-2.2223-11.288-2.2449-2.5648-7.0279-3.8752-13.904-2.2635-4.8977 1.1491-11.9 2.3848-18.307 3.334 0 0 0.3866-1.5424 0.7039-4.2618 1.6663-14.261-13.831-13.104-18.775-8.5491-2.9514 2.7195-4.9604 5.9269-5.7229 11.694-1.2091 9.1516 6.2548 13.468 6.2548 13.468-2.4489 11.21-8.4517 25.854-14.649 36.441-3.3193 5.6724-5.8588 9.8757-9.1369 14.344-0.012-1.6638-0.021-3.3274-0.027-4.9834-0.075-23.568 0.2386-42.116 0.3772-48.801 0.1347-6.548 0.3973-11.443 0.3826-12.584-0.037-2.5595-1.5317-3.526-4.6404-4.7498-2.7488-1.0824-5.9989-1.8316-9.3702-2.0929-4.2552-0.3319-6.8187 1.925-6.7521 4.5938 0.013 0.5039 0.013 3.598 0.013 3.598-3.4994-5.499-9.1276-9.3262-12.872-10.435-10.086-2.9941-20.611-0.3399-28.549 10.767-6.3081 8.8263-10.439 21.212-11.61 33.076-1.0904 11.058-0.8891 20.455 0.5973 28.37-1.6037 7.9266-6.2148 16.216-11.428 16.216-6.6654 0-10.458-5.8953-10.458-32.839 0-15.718 0.4719-22.553 0.7039-33.92 0.1346-6.548 0.3946-11.578 0.3799-12.718-0.049-3.4993-6.1002-5.263-8.9156-5.9162-2.9461-0.6812-5.4896-0.9318-7.4426-0.7879-2.5768 0.192-4.3885 2.4996-4.3885 4.2206v3.9659c-3.4993-5.499-9.1275-9.3262-12.872-10.435-10.086-2.9941-20.552-0.2972-28.549 10.767-5.215 7.2146-9.4369 15.213-11.61 32.919-0.6279 5.1167-0.9052 9.9081-0.8692 14.387-2.0796 12.718-11.264 27.376-18.778 27.376-4.3965 0-8.5837-8.5275-8.5837-26.702 0-24.209 1.4984-58.677 1.7517-61.999 0 0 9.4928-0.1613 11.331-0.1827 4.735-0.052 9.0236 0.06 15.33-0.2626 3.1634-0.1613 6.2108-11.514 2.9461-12.919-1.4797-0.6359-11.938-1.1931-16.084-1.2811-3.486-0.079-13.191-0.7972-13.191-0.7972s0.8705-22.878 1.0731-25.295c0.172-2.0143-2.4342-3.0514-3.9286-3.6807-3.6339-1.537-6.8853-2.2729-10.739-3.0674-5.3244-1.0984-7.7399-0.024-8.2118 4.4698-0.7105 6.8201-1.0785 26.796-1.0785 26.796-3.9072 0-17.254-0.7638-21.162-0.7638-3.6313 0-7.5506 15.617-2.5302 15.809 5.7762 0.224 15.842 0.4173 22.516 0.6186 0 0-0.2972 35.036-0.2972 45.852 0 1.1508 0.01 2.259 0.012 3.3343-3.6727 19.143-16.609 29.484-16.609 29.484 2.7781-12.664-2.8968-22.174-13.119-30.225-3.766-2.9666-11.201-8.5828-19.519-14.737 0 0 4.8178-4.7484 9.0903-14.301 3.0274-6.7667 3.1581-14.511-4.2725-16.218-12.278-2.8235-22.401 6.1934-25.42 15.82-2.3395 7.4572-1.0917 12.991 3.4914 18.739 0.3346 0.42 0.6972 0.8492 1.0718 1.2811-2.7715 5.3419-6.5788 12.534-9.8035 18.111-8.9503 15.485-15.712 27.733-20.821 27.733-4.0846 0-4.0299-12.435-4.0299-24.078 0-10.037 0.7412-25.127 1.3331-40.751 0.1959-5.167-2.3876-8.1105-6.7187-10.777-2.6315-1.6197-8.2478-4.8044-11.5-4.8044-4.8686 0-18.915 0.6625-32.187 39.054-1.6726 4.8389-4.9585 13.656-4.9585 13.656l0.2828-46.167c0-1.0824-0.5765-2.1289-1.8965-2.8448-2.2365-1.2144-8.2099-3.6979-13.521-3.6979-2.5307 0-3.7936 1.1771-3.7936 3.5233l-0.4633 72.229c0 5.488 0.1431 11.89 0.6857 14.69 0.5406 2.8037 1.4164 5.0845 2.5011 6.4415 1.0831 1.3544 2.336 2.3876 4.4017 2.814 1.9226 0.3958 12.45 1.7477 12.997-2.2755 0.6556-4.8215 0.6807-10.037 6.2088-29.486 8.6061-30.281 19.827-45.055 25.102-50.302 0.9223-0.9171 1.9754-0.9718 1.9247 0.5292-0.2252 6.6388-1.0171 23.228-1.5502 37.321-1.4289 37.715 5.4322 44.706 15.237 44.706 7.5012 0 18.075-7.4533 29.41-26.32 7.0667-11.758 13.928-23.286 18.858-31.595 3.4354 3.1802 7.2906 6.603 11.143 10.26 8.9529 8.4973 11.892 16.572 9.9421 24.231-1.4917 5.8557-7.1093 11.89-17.107 6.0249-2.9141-1.7112-4.1579-3.0333-7.088-4.9625-1.5743-1.0364-3.9779-1.3462-5.4189-0.2605-3.7433 2.8224-5.8842 6.4123-7.1066 10.857-1.1891 4.3247 3.142 6.6108 7.6318 8.6104 3.8659 1.721 12.175 3.2805 17.474 3.4581 20.647 0.6905 37.186-9.9689 48.7-37.465 2.061 23.746 10.833 37.184 26.072 37.184 10.189 0 20.404-13.17 24.871-26.126 1.2824 5.2812 3.1807 9.8737 5.6322 13.757 11.743 18.606 34.524 14.601 45.967-1.1981 3.538-4.8819 4.0765-6.6362 4.0765-6.6362 1.669 14.918 13.683 20.131 20.561 20.131 7.7039 0 15.658-3.642 21.233-16.193 0.6533 1.3621 1.3664 2.6629 2.145 3.896 11.743 18.606 34.524 14.601 45.967-1.1981 0.5399-0.7411 1.0078-1.4134 1.4171-2.0168l0.3359 9.7991s-6.5281 5.9885-10.535 9.6622c-17.637 16.181-31.047 28.457-32.034 42.753-1.2664 18.228 13.517 25.003 24.702 25.891 11.878 0.9426 22.049-5.6187 28.301-14.801 5.4989-8.0823 9.0983-25.478 8.8343-42.658-0.1053-6.8799-0.2786-15.628-0.4146-25.004 6.1988-7.1986 13.183-16.297 19.614-26.947 7.008-11.606 14.518-27.192 18.364-39.322 0 0 6.5255 0.056 13.489-0.3999 2.2276-0.1453 2.8675 0.3092 2.4556 1.9423-0.4973 1.9729-8.7983 33.991-1.2225 55.32 5.1857 14.601 16.876 19.299 23.806 19.299 8.1131 0 15.874-6.1269 20.033-15.225 0.5012 1.0143 1.0251 1.9958 1.597 2.9019 11.743 18.606 34.444 14.577 45.967-1.1981 2.6008-3.5592 4.0765-6.6362 4.0765-6.6362 2.4729 15.44 14.48 20.209 21.357 20.209 7.164 0 13.963-2.9369 19.479-15.989 0.2306 5.7468 0.5932 10.446 1.1664 11.927 0.3493 0.906 2.3849 2.0434 3.8659 2.5927 6.5534 2.4302 13.238 1.281 15.71 0.7811 1.713-0.3467 3.0488-1.721 3.2314-5.2698 0.4799-9.3181 0.1853-24.974 3.0101-36.609 4.7418-19.527 9.1649-27.101 11.263-30.851 1.1744-2.101 2.4995-2.4476 2.5475-0.224 0.099 4.4991 0.3226 17.711 2.1596 35.462 1.349 13.055 3.1514 20.772 4.5364 23.214 3.9526 6.984 8.8343 7.3147 12.81 7.3147 2.5288 0 7.8171-0.6988 7.3439-5.1432-0.2306-2.1663 0.1733-15.554 4.8484-34.792 3.0527-12.563 8.1424-23.914 9.9781-28.064 0.6772-1.5304 0.9918-0.324 0.9811-0.089-0.3866 8.6517-1.2544 36.95 2.2702 52.427 4.7778 20.967 18.599 23.313 23.416 23.313 10.282 0 18.691-7.8214 21.524-28.401 0.6825-4.9526-0.328-8.7768-3.3554-8.7768" fill="#262626"/>
<text x="98.084099" y="208.13277" fill="#000000" font-family="sans-serif" font-size="42.667px" letter-spacing="0px" word-spacing="0px" style="line-height:1.25" xml:space="preserve"><tspan x="98.084099" y="208.13277">LOGODOWNLOAD.ORG</tspan></text>
</svg>
