<?xml version="1.0" encoding="utf-8"?>
<!-- Generator: Adobe Illustrator 24.0.2, SVG Export Plug-In . SVG Version: 6.00 Build 0)  -->
<svg version="1.1" id="Layer_1" xmlns="http://www.w3.org/2000/svg" xmlns:xlink="http://www.w3.org/1999/xlink" x="0px" y="0px"
	 viewBox="0 0 118 38" style="enable-background:new 0 0 118 38;" xml:space="preserve">
<style type="text/css">
	.st0{fill:#007844;}
	.st1{fill:#A4C929;}
	.st2{fill:#D37B27;}
	.st3{fill:#274582;}
</style>
<g>
	<g>
		<path class="st0" d="M27.3,29.7l-1-21.3h-6.9L18.3,11c0.5,1.2,0.6,2.5,0.4,4.1c-0.3,1.4-0.9,2.7-1.8,3.7c-0.7,0.8-1.5,1.4-2.5,1.9
			L14.3,21l2.4,8.7l1-3.1h3.7l-0.1,3.1L27.3,29.7C27.3,29.7,27.3,29.7,27.3,29.7z M19.2,22.2l2.6-8l-0.2,8H19.2z"/>
		<path class="st1" d="M0.1,29.7L3.9,8.3H11c2.4,0,4.2,0.6,5.3,1.8c1.1,1.2,1.6,2.8,1.2,4.8c-0.3,1.3-0.7,2.3-1.5,3.2
			c-0.9,0.9-2,1.7-3.1,2.1l2.6,9.5H9l-1.3-8.3l-1.5,8.3L0.1,29.7L0.1,29.7L0.1,29.7z M9.4,12.7l-1,5.1c0.9,0,1.5-0.3,1.9-0.7
			c0.4-0.4,0.8-1,1-1.9c0.2-0.8,0.1-1.5-0.2-1.9c-0.3-0.4-0.8-0.7-1.5-0.7H9.4V12.7L9.4,12.7z"/>
	</g>
	<g>
		<path class="st2" d="M39.3,14.6v11.2c0,0.3,0.3,0.6,0.6,0.6h2.6v3.2h-3.2c-1.8,0-3.2-1.4-3.2-3.2c0,0,0,0,0,0V8.2h3.2v3.2h3.2v3.2
			H39.3z M50,14.6h-2.6c-0.3,0-0.6,0.3-0.6,0.6v14.4h-3.2V14.6c0-1.8,1.4-3.2,3.2-3.2c0,0,0,0,0,0H50L50,14.6L50,14.6z M60.6,11.4
			v15.1c0,1.7-1.4,3.2-3.2,3.2h-3.2c-1.8,0-3.2-1.5-3.2-3.2V11.4h3.2v14.4c0,0.3,0.3,0.6,0.6,0.6h2c0.3,0,0.6-0.3,0.6-0.6V11.4
			L60.6,11.4L60.6,11.4z M71.3,24c0.1,0.9,0.1,1.8-0.2,2.7c-0.3,0.9-0.9,1.6-1.6,2.1c-0.8,0.6-1.8,0.9-2.7,0.9h-4.9v-3.2h4.9
			c1,0,1.3-0.8,1.4-1c0.2-0.6,0.1-1.3-0.4-1.7l-4.5-4.2c-0.7-0.7-1.2-1.6-1.4-2.6c-0.2-0.9-0.1-1.8,0.2-2.7c0.3-0.9,0.9-1.6,1.6-2.1
			c0.8-0.6,1.7-0.9,2.7-0.9h6.9v3.2h-6.9c-1,0-1.3,0.7-1.4,1c-0.2,0.6-0.1,1.3,0.4,1.7l4.4,4.2C70.6,22.2,71.1,23.1,71.3,24z"/>
		<path class="st2" d="M75.6,14.6v11.2c0,0.3,0.3,0.6,0.6,0.6h2.6v3.2h-3.2c-1.8,0-3.2-1.4-3.2-3.2c0,0,0,0,0,0V8.2h3.2v3.2h2.7
			l0.5,3.2H75.6z"/>
		<path class="st3" d="M90,11.4l-2.7,18.3h-5.4l-2.7-18.3h3.2l2.3,15.9l2.2-15.9L90,11.4z M94.2,11.4h3.2c1.8,0,3.2,1.4,3.2,3.2
			c0,0,0,0,0,0v11.9c0,1.7-1.4,3.2-3.2,3.2h-3.2c-1.8,0-3.2-1.5-3.2-3.2V14.6C91,12.9,92.4,11.5,94.2,11.4
			C94.2,11.4,94.2,11.4,94.2,11.4L94.2,11.4z M97.5,25.9V15.2c0-0.3-0.3-0.6-0.6-0.6c0,0,0,0,0,0h-2c-0.3,0-0.6,0.3-0.6,0.6
			c0,0,0,0,0,0v10.6c0,0.3,0.3,0.6,0.6,0.6h2C97.2,26.5,97.5,26.2,97.5,25.9C97.5,25.9,97.5,25.9,97.5,25.9z M105.2,20.6l-4.2-9.1
			h3.5l2.5,5.4l2.5-5.4h3.5l-4.2,9.1l4.2,9.1h-3.5l-2.5-5.4l-2.5,5.4h-3.5L105.2,20.6z"/>
	</g>
</g>
</svg>
