<?xml version="1.0" encoding="utf-8"?>
<!-- Generator: Adobe Illustrator 24.0.2, SVG Export Plug-In . SVG Version: 6.00 Build 0)  -->
<svg version="1.1" id="Layer_1" xmlns="http://www.w3.org/2000/svg" xmlns:xlink="http://www.w3.org/1999/xlink" x="0px" y="0px"
	 viewBox="0 0 82 16" style="enable-background:new 0 0 82 16;" xml:space="preserve">
<style type="text/css">
	.st0{fill-rule:evenodd;clip-rule:evenodd;fill:#FFFFFF;}
</style>
<path class="st0" d="M50.8,2.5V0.2h2.4v2.4h2l0.4,2.4h-2.4v0v8.3c0,0.2,0.2,0.5,0.5,0.5h1.9V16h-2.4c-1.3,0-2.4-1-2.4-2.3
	c0,0,0,0,0,0V4.9h-4.4c-0.7,0-1,0.6-1.1,0.7s-0.3,0.8,0.3,1.3l3.3,3.1c0.5,0.5,0.9,1.2,1.1,1.9c0.1,0.7,0.1,1.3-0.2,2
	c-0.3,0.6-0.7,1.2-1.2,1.6c-0.6,0.4-1.3,0.7-2,0.7h-3.6v-2.4h3.6c0.7,0,1-0.6,1.1-0.7c0.1-0.2,0.3-0.8-0.3-1.3L44,8.6
	c-0.5-0.5-0.9-1.2-1-1.9c-0.1-0.7-0.1-1.3,0.2-2c0.2-0.6,0.7-1.2,1.2-1.6c0.6-0.4,1.3-0.6,2-0.6L50.8,2.5L50.8,2.5z M26.2,4.9v8.3
	c0,0.2,0.2,0.5,0.5,0.5h1.9V16h-2.4c-1.3,0-2.4-1-2.4-2.3c0,0,0,0,0,0V0.2h2.4v2.4h2.4v2.4L26.2,4.9L26.2,4.9z M34.1,4.9h-1.9
	c-0.3,0-0.5,0.2-0.5,0.5V16h-2.4V4.9c0-1.3,1.1-2.4,2.4-2.4c0,0,0,0,0,0h2.4L34.1,4.9L34.1,4.9z M42,2.5v11.1c0,1.3-1.1,2.4-2.4,2.4
	h-2.4c-1.3,0-2.4-1.1-2.4-2.4V2.5h2.4v10.6c0,0.2,0.2,0.5,0.5,0.5h1.5c0.3,0,0.5-0.2,0.5-0.5V2.5L42,2.5L42,2.5z M63.9,2.5l-2,13.4
	h-4l-2-13.4h2.4l1.7,11.7l1.7-11.7L63.9,2.5L63.9,2.5z M67.1,2.5h2.4c1.3,0,2.4,1,2.4,2.3c0,0,0,0,0,0v8.7c0,1.3-1.1,2.4-2.4,2.4
	h-2.4c-1.3,0-2.4-1.1-2.4-2.4V4.9C64.7,3.6,65.7,2.5,67.1,2.5C67,2.5,67.1,2.5,67.1,2.5L67.1,2.5z M69.4,13.2V5.4
	c0-0.2-0.2-0.5-0.4-0.5c0,0,0,0,0,0h-1.5c-0.2,0-0.5,0.2-0.5,0.4c0,0,0,0,0,0v7.8c0,0.2,0.2,0.5,0.5,0.5H69
	C69.2,13.6,69.4,13.4,69.4,13.2L69.4,13.2z M75.2,9.3L72,2.5h2.6l1.8,3.9l1.8-3.9H81l-3.2,6.7L81,16h-2.6l-1.8-3.9L74.7,16H72
	L75.2,9.3L75.2,9.3z M14,10.5h0.9c0.1-2.1,0.1-4.1,0.2-6.1c0,0,0,0-0.1,0c-0.6,2-1.3,4.1-1.9,6.1h1.8c0.1-2.1,0.1-4.1,0.2-6.1
	c0,0,0,0-0.1,0l0.1,0c-0.1,2-0.1,4.1-0.2,6.1L14,10.5L14,10.5z M0.2,16c0.1-0.6,0.2-1.1,0.3-1.6c0.3-1.6,0.5-3.2,0.8-4.8
	C1.5,7.7,1.8,5.9,2.1,4c0.2-1.2,0.4-2.4,0.6-3.6c0-0.2,0.1-0.3,0.3-0.3c1.5,0,3.1,0,4.6,0c1,0,2,0.2,2.9,0.6
	c1.4,0.6,2.1,1.7,2.2,3.2c0.1,1.7-0.5,3.2-1.7,4.5C10.6,9,10.3,9.2,9.3,9.5l2.1,6.5h-1.1c-1.1,0-2.2,0-3.3,0c-0.2,0-0.3,0-0.3-0.2
	c-0.4-2-0.8-3.9-1.1-5.9c0,0,0-0.1-0.1-0.2l-1,6.2C3.1,16,1.6,16,0.2,16L0.2,16z M5.9,7.6c0.4,0.1,0.8,0,1.2-0.2
	C7.7,6.9,8,6.3,8.1,5.5c0.1-1-0.4-1.8-1.5-1.8c-0.1,0-0.2,0-0.2,0.2C6.4,4.3,6.3,4.6,6.3,5C6.1,5.9,6,6.7,5.9,7.6L5.9,7.6z M19.5,16
	h-4.6V14h-1.5c-0.4,0-0.7,0-1.1,0c-0.2,0-0.3,0.1-0.3,0.2c-0.1,0.4-0.2,0.8-0.4,1.2L9.7,9.6c0.8-0.2,1.2-0.4,1.6-0.9
	c1.3-1.4,1.8-2.9,1.7-4.7c0-0.7-0.2-1.4-0.6-1.9l0.7-1.7c0.1-0.2,0.1-0.2,0.3-0.2c1.6,0,3.1,0,4.7,0c0.2,0,0.3,0.1,0.3,0.3
	c0.1,1.7,0.2,3.4,0.4,5.1c0.1,1.4,0.2,2.8,0.3,4.2c0.1,1.4,0.2,2.9,0.3,4.3C19.4,14.7,19.4,15.3,19.5,16L19.5,16z"/>
</svg>
